<svg version="1" xmlns="http://www.w3.org/2000/svg" width="500px" height="525px" viewBox="0 -74.25 151.25 188">
    <path fill="#FFC627" d="M56 90h33v8H56z"/>
    <path fill="#FFC627" d="M76 90l28 4S86 68 88 21c3-42 19-67 19-67l-12-1S73-25 69 20c-3 42 7 70 7 70z"/>
    <path fill="#C26B11" d="M76 90l28 4S86 68 88 21c3-42 19-67 19-67S80-25 76 20c-4 43 0 70 0 70z"/>
    <path fill="#FFC627" d="M83 95h29S91 75 88 34c-2-36 12-60 12-60H87S69-5 69 35c1 37 14 60 14 60z"/>
    <path fill="#EDAA00" d="M83 95h29S91 75 88 34c-2-36 12-60 12-60S75-5 76 35c0 37 7 60 7 60zM67 90l-29 4s18-26 16-73c-2-42-18-67-18-67l12-1s22 21 25 66c4 43-6 71-6 71z"/>
    <path fill="#FFC627" d="M67 90l-29 4s18-26 16-73c-2-42-18-67-18-67s27 21 31 66c4 43 0 70 0 70z"/>
    <path fill="#EDAA00" d="M60 95H31s21-20 23-61c3-36-11-60-11-60h12S74-5 74 35c-1 37-14 60-14 60z"/>
    <path fill="#FFC627" d="M60 95H31s21-20 23-61c3-36-11-60-11-60S68-5 67 35c0 37-7 60-7 60zM31 95h81v9H31z"/>
    <path fill="#EDAA00" d="M59 95h53v9H59z"/>
    <path fill="#C26B11" d="M83 95h28v9H83zM76-12c12-7 18-14 18-14h-3l4-7c9-10-2-13-14 7l-5 14z"/>
    <circle fill="#EDAA00" cx="71" cy="-41" r="23"/>
    <path fill="#FFC627" d="M49-41c0 5 1 9 3 12 4 3 8 5 13 5 11 0 21-9 21-21 0-8-5-16-13-19h-2c-12 0-22 10-22 23z"/>
</svg>
